<?xml version="1.0" encoding="UTF-8" standalone="no"?>
<!-- Created with Inkscape (http://www.inkscape.org/) -->

<svg
   xmlns:dc="http://purl.org/dc/elements/1.1/"
   xmlns:cc="http://creativecommons.org/ns#"
   xmlns:rdf="http://www.w3.org/1999/02/22-rdf-syntax-ns#"
   xmlns:svg="http://www.w3.org/2000/svg"
   xmlns="http://www.w3.org/2000/svg"
   xmlns:sodipodi="http://sodipodi.sourceforge.net/DTD/sodipodi-0.dtd"
   xmlns:inkscape="http://www.inkscape.org/namespaces/inkscape"
   width="40"
   height="40"
   viewBox="0 0 40.000001 40.000001"
   id="svg3344"
   version="1.1"
   inkscape:version="0.91 r13725"
   inkscape:export-filename="/home/fredele/Desktop/params.png"
   inkscape:export-xdpi="89.999969"
   inkscape:export-ydpi="89.999969"
   sodipodi:docname="bouttons.svg">
  <defs
     id="defs3346" />
  <sodipodi:namedview
     id="base"
     pagecolor="#ffffff"
     bordercolor="#666666"
     borderopacity="1.0"
     inkscape:pageopacity="0.0"
     inkscape:pageshadow="2"
     inkscape:zoom="11.313709"
     inkscape:cx="3.2767409"
     inkscape:cy="7.0802719"
     inkscape:document-units="px"
     inkscape:current-layer="layer1"
     showgrid="false"
     units="px"
     inkscape:window-width="1920"
     inkscape:window-height="1127"
     inkscape:window-x="0"
     inkscape:window-y="0"
     inkscape:window-maximized="1"
     showguides="true"
     inkscape:guide-bbox="true"
     objecttolerance="20"
     inkscape:snap-path-clip="true"
     inkscape:snap-perpendicular="true"
     inkscape:snap-tangential="true"
     inkscape:snap-bbox="true"
     inkscape:object-paths="true"
     inkscape:snap-intersection-paths="true"
     inkscape:object-nodes="true"
     inkscape:snap-smooth-nodes="true"
     inkscape:snap-midpoints="true"
     inkscape:snap-global="false">
    <sodipodi:guide
       position="34.999989,20"
       orientation="0,1"
       id="guide4183" />
    <sodipodi:guide
       position="19.999997,65.125019"
       orientation="1,0"
       id="guide4191" />
    <sodipodi:guide
       position="5.0000051,35.000001"
       orientation="1,0"
       id="guide4208" />
    <sodipodi:guide
       position="5.0000051,35.000018"
       orientation="0,1"
       id="guide4300" />
    <sodipodi:guide
       position="19.999997,5.0000175"
       orientation="0,1"
       id="guide4302" />
    <sodipodi:guide
       position="34.999988,35.000018"
       orientation="-1,0"
       id="guide4308" />
  </sodipodi:namedview>
  <metadata
     id="metadata3349">
    <rdf:RDF>
      <cc:Work
         rdf:about="">
        <dc:format>image/svg+xml</dc:format>
        <dc:type
           rdf:resource="http://purl.org/dc/dcmitype/StillImage" />
        <dc:title />
      </cc:Work>
    </rdf:RDF>
  </metadata>
  <g
     inkscape:groupmode="layer"
     id="layer2"
     inkscape:label="fond"
     style="display:none"
     sodipodi:insensitive="true">
    <rect
       style="fill:#000000;fill-opacity:1;stroke:none;stroke-width:0;stroke-linejoin:miter;stroke-miterlimit:4;stroke-dasharray:none;stroke-dashoffset:0;stroke-opacity:1"
       id="rect3401"
       width="40"
       height="40"
       x="-3.4999998e-06"
       y="0" />
  </g>
  <g
     inkscape:label="Calque 1"
     inkscape:groupmode="layer"
     id="layer1"
     transform="translate(0,-1012.3622)"
     style="display:inline">
    <g
       id="g4264">
      <path
         sodipodi:nodetypes="cccc"
         inkscape:connector-curvature="0"
         id="path3352-5"
         d="m -62.558586,1017.3622 0,30 14.999991,-15 z"
         style="fill:#ffffff;fill-rule:evenodd;stroke:#ffffff;stroke-width:0;stroke-linecap:butt;stroke-linejoin:miter;stroke-miterlimit:4;stroke-dasharray:none;stroke-opacity:1" />
      <path
         sodipodi:nodetypes="cccc"
         inkscape:connector-curvature="0"
         id="path3352-7-3"
         d="m -47.558594,1017.3622 0,30 14.99999,-15 z"
         style="fill:#ffffff;fill-rule:evenodd;stroke:#ffffff;stroke-width:0;stroke-linecap:butt;stroke-linejoin:miter;stroke-miterlimit:4;stroke-dasharray:none;stroke-opacity:1" />
    </g>
    <path
       style="fill:#ffffff;fill-rule:evenodd;stroke:#ffffff;stroke-width:0;stroke-linecap:butt;stroke-linejoin:miter;stroke-miterlimit:4;stroke-dasharray:none;stroke-opacity:1"
       d="m -150.89708,1017.3622 0,30 29.99998,-15 z"
       id="path3352-56"
       inkscape:connector-curvature="0"
       sodipodi:nodetypes="cccc" />
    <path
       style="fill:#ffffff;fill-opacity:1;stroke:none;stroke-width:0;stroke-linejoin:miter;stroke-miterlimit:4;stroke-dasharray:none;stroke-dashoffset:0;stroke-opacity:1"
       clip-path="none"
       d="m 1.0742187,1013.4364 0,37.8516 37.8515583,0 0,-37.8516 -37.8515583,0 z m 2.5024302,2.5504 32.7342911,0 0,32.7342 -32.7342911,0 0,-32.7342 z"
       id="rect3396"
       inkscape:connector-curvature="0" />
    <rect
       style="fill:#ffffff;fill-opacity:1;stroke:none;stroke-width:0;stroke-linejoin:miter;stroke-miterlimit:4;stroke-dasharray:none;stroke-dashoffset:0;stroke-opacity:1"
       id="rect4304-9"
       width="24.628885"
       height="3.8187547"
       x="-241.06181"
       y="1019.7108" />
    <rect
       style="fill:#ffffff;fill-opacity:1;stroke:none;stroke-width:0;stroke-linejoin:miter;stroke-miterlimit:4;stroke-dasharray:none;stroke-dashoffset:0;stroke-opacity:1"
       id="rect4304-3-1"
       width="29.999979"
       height="3.8187547"
       x="-241.06181"
       y="1025.6699" />
    <rect
       style="fill:#ffffff;fill-opacity:1;stroke:none;stroke-width:0;stroke-linejoin:miter;stroke-miterlimit:4;stroke-dasharray:none;stroke-dashoffset:0;stroke-opacity:1"
       id="rect4304-3-6-2"
       width="29.999979"
       height="3.8187547"
       x="-241.06181"
       y="1031.6296" />
    <rect
       style="fill:#ffffff;fill-opacity:1;stroke:none;stroke-width:0;stroke-linejoin:miter;stroke-miterlimit:4;stroke-dasharray:none;stroke-dashoffset:0;stroke-opacity:1"
       id="rect4304-3-5-7"
       width="29.999979"
       height="3.8187547"
       x="-241.06181"
       y="1037.5889" />
    <rect
       style="fill:#ffffff;fill-opacity:1;stroke:none;stroke-width:0;stroke-linejoin:miter;stroke-miterlimit:4;stroke-dasharray:none;stroke-dashoffset:0;stroke-opacity:1"
       id="rect4304-3-56-0"
       width="29.999979"
       height="3.8187547"
       x="-241.06181"
       y="1043.5483" />
    <path
       style="fill:#ffffff;fill-opacity:1;stroke:none;stroke-width:0;stroke-linejoin:miter;stroke-miterlimit:4;stroke-dasharray:none;stroke-dashoffset:0;stroke-opacity:1"
       clip-path="none"
       d="m -244.9876,1013.4413 0,37.8516 37.85155,0 0,-37.8516 -37.85155,0 z m 2.50243,2.5504 32.73429,0 0,32.7342 -32.73429,0 0,-32.7342 z"
       id="rect3396-9"
       inkscape:connector-curvature="0" />
    <path
       style="display:inline;fill:#ffffff;fill-opacity:1;stroke:none;stroke-width:0;stroke-linejoin:miter;stroke-miterlimit:4;stroke-dasharray:none;stroke-dashoffset:0;stroke-opacity:1"
       clip-path="none"
       d="m -364.91674,1013.4617 0,37.8517 37.85156,0 0,-37.8517 -37.85156,0 z m 2.50243,2.5504 32.73429,0 0,32.7343 -32.73429,0 0,-32.7343 z"
       id="rect3396-3"
       inkscape:connector-curvature="0" />
    <path
       style="display:inline;fill:#ffffff;fill-opacity:1;stroke:none;stroke-width:0;stroke-linejoin:miter;stroke-miterlimit:4;stroke-dasharray:none;stroke-dashoffset:0;stroke-opacity:1"
       d="m -345.97143,1018.4969 a 14.066907,14.066907 0 0 0 -14.0664,14.0664 14.066907,14.066907 0 0 0 14.0664,14.0665 14.066907,14.066907 0 0 0 14.06641,-14.0665 14.066907,14.066907 0 0 0 -14.06641,-14.0664 z m 0.0117,10.539 a 3.3203125,3.3203125 0 0 1 3.32032,3.3204 3.3203125,3.3203125 0 0 1 -3.32032,3.3203 3.3203125,3.3203125 0 0 1 -3.32031,-3.3203 3.3203125,3.3203125 0 0 1 3.32031,-3.3204 z"
       id="path3435-6"
       inkscape:connector-curvature="0" />
    <path
       style="fill:#ffffff;fill-opacity:1;stroke:none;stroke-width:0;stroke-linejoin:miter;stroke-miterlimit:4;stroke-dasharray:none;stroke-dashoffset:0;stroke-opacity:1"
       d="M 20.09375 7.4765625 A 12.498665 12.498665 0 0 0 15.953125 8.1972656 L 16.804688 11.435547 L 14.113281 12.990234 L 11.791016 10.652344 A 12.498665 12.498665 0 0 0 8.8535156 14.544922 L 11.683594 16.195312 L 10.878906 19.197266 L 7.6347656 19.185547 A 12.498665 12.498665 0 0 0 7.5957031 19.974609 A 12.498665 12.498665 0 0 0 8.28125 24.011719 L 11.427734 23.183594 L 12.980469 25.875 L 10.675781 28.166016 A 12.498665 12.498665 0 0 0 14.527344 31.148438 L 16.1875 28.304688 L 19.189453 29.109375 L 19.177734 32.425781 A 12.498665 12.498665 0 0 0 20.09375 32.472656 A 12.498665 12.498665 0 0 0 24.033203 31.820312 L 23.175781 28.560547 L 25.865234 27.005859 L 28.259766 29.417969 A 12.498665 12.498665 0 0 0 31.271484 25.537109 L 28.296875 23.800781 L 29.101562 20.798828 L 32.552734 20.810547 A 12.498665 12.498665 0 0 0 32.59375 19.974609 A 12.498665 12.498665 0 0 0 31.90625 15.929688 L 28.552734 16.8125 L 26.998047 14.121094 L 29.439453 11.697266 A 12.498665 12.498665 0 0 0 25.517578 8.7324219 L 23.791016 11.691406 L 20.791016 10.886719 L 20.800781 7.5117188 A 12.498665 12.498665 0 0 0 20.09375 7.4765625 z M 19.886719 15.853516 A 4.0741505 4.0741505 0 0 1 21.287109 16.070312 A 4.0741506 4.0741506 0 0 1 23.701172 18.173828 A 4.0741505 4.0741505 0 0 1 23.980469 21.103516 A 4.0741506 4.0741506 0 0 1 21.851562 23.691406 A 4.0741505 4.0741505 0 0 1 18.693359 23.925781 A 4.0741506 4.0741506 0 0 1 16.308594 21.884766 A 4.0741505 4.0741505 0 0 1 16.070312 18.679688 A 4.0741506 4.0741506 0 0 1 18.128906 16.304688 A 4.0741505 4.0741505 0 0 1 19.886719 15.853516 z "
       transform="translate(0,1012.3622)"
       id="path3355" />
  </g>
</svg>
